<svg width="55" height="55" viewBox="0 0 55 55" fill="none" xmlns="http://www.w3.org/2000/svg">
<g clip-path="url(#clip0_1_363)">
<path d="M55 0H0V55H55V0Z" fill="white"/>
<path fill-rule="evenodd" clip-rule="evenodd" d="M4.58301 27.5002C4.58301 14.8436 14.8431 4.5835 27.4997 4.5835C40.1561 4.5835 50.4163 14.8436 50.4163 27.5002C50.4163 40.1566 40.1561 50.4168 27.4997 50.4168C14.8431 50.4168 4.58301 40.1566 4.58301 27.5002ZM35.9951 21.2964C36.89 22.1913 36.89 23.6424 35.9951 24.5373L27.5554 32.977C26.259 34.2734 24.157 34.2734 22.8606 32.977L19.0042 29.1206C18.1093 28.2257 18.1093 26.7746 19.0042 25.8797C19.8992 24.9848 21.3502 24.9848 22.2451 25.8797L25.208 28.8426L32.7542 21.2964C33.6491 20.4014 35.1002 20.4014 35.9951 21.2964Z" fill="#725CFF"/>
</g>
<defs>
<clipPath id="clip0_1_363">
<rect width="55" height="55" fill="white"/>
</clipPath>
</defs>
</svg>
