<svg width="55" height="55" viewBox="0 0 55 55" fill="none" xmlns="http://www.w3.org/2000/svg">
<g clip-path="url(#clip0_1_366)">
<path fill-rule="evenodd" clip-rule="evenodd" d="M41.6293 6.33687L42.2139 6.40998C43.7584 6.62356 45.8012 6.9097 46.9599 8.06827C47.9077 9.0162 48.2717 10.556 48.4896 11.9306L48.6182 12.8142C48.9064 14.8998 48.9818 17.6328 48.4898 20.6666C47.5184 26.655 44.3307 33.7997 36.3247 39.3316C36.2823 39.763 36.279 40.1973 36.2888 40.6324L36.3101 41.2854C36.3479 42.2864 36.3855 43.2861 36.1052 44.2593C35.6694 45.7727 34.1198 46.7687 32.6701 47.4842L31.9591 47.8196L31.0425 48.2242C29.3278 48.9517 27.013 49.6986 25.5617 48.2475C24.6925 47.3783 24.3332 46.1039 24.042 44.8358L23.9351 44.3613C23.7964 43.7396 23.6608 43.1318 23.4754 42.5876C23.3615 42.2534 23.2386 41.9129 23.1055 41.5687C22.9604 41.7463 22.8049 41.9184 22.6393 42.0839C21.8484 42.8749 20.6687 43.427 19.6967 43.8131C18.6356 44.2343 17.4356 44.6015 16.3243 44.9031L15.7544 45.0541L14.6613 45.3258L13.6712 45.554L12.4864 45.8065L11.7458 45.9517C11.085 46.0748 10.2866 45.9144 9.68638 45.3142C9.08615 44.7138 8.92564 43.9156 9.04877 43.2547L9.24479 42.2671L9.59722 40.6677L9.8811 39.501L10.0975 38.6761C10.399 37.5649 10.7661 36.365 11.1875 35.3037C11.5734 34.3318 12.1257 33.1521 12.9166 32.3612L13.1008 32.1836L12.9529 32.1256C12.5818 31.9805 12.1805 31.8479 11.7639 31.7178L11.1291 31.5234C9.5393 31.0408 7.83875 30.5245 6.78069 29.4664C5.50026 28.186 5.93118 26.233 6.54998 24.6133L6.80391 23.9856L7.20846 23.069L7.54391 22.358C8.25937 20.9083 9.2554 19.3587 10.7688 18.9229C11.5711 18.6918 12.4056 18.6787 13.244 18.702L13.7472 18.7188C14.4026 18.7426 15.0568 18.7664 15.6965 18.7034C21.2285 10.6973 28.3731 7.5097 34.3615 6.53838C37.1194 6.09103 39.6288 6.11257 41.6293 6.33687ZM19.1431 35.3816C18.4029 34.8313 17.4061 34.7849 16.6227 35.2427L16.3701 35.414L16.1575 35.6021L15.871 35.9657C15.2743 36.8263 14.9355 38.0182 14.671 39.1321L14.4245 40.2048C14.3853 40.3742 14.3465 40.5377 14.3071 40.6933L14.7452 40.5876L15.7023 40.3684C17.0284 40.0593 18.4956 39.6562 19.3989 38.8425C20.2205 38.0209 20.2874 36.7312 19.6005 35.8327L19.413 35.6168L19.3591 35.5638L19.1431 35.3816ZM35.6031 19.3978C33.8131 17.6079 30.9111 17.6079 29.1211 19.3978C27.3313 21.1877 27.3313 24.0897 29.1211 25.8797C30.9111 27.6695 33.8131 27.6695 35.6031 25.8797C37.3929 24.0897 37.3929 21.1877 35.6031 19.3978Z" fill="#725CFF"/>
</g>
<defs>
<clipPath id="clip0_1_366">
<rect width="55" height="55" fill="white"/>
</clipPath>
</defs>
</svg>
