<svg width="558" height="474" viewBox="0 0 558 474" fill="none" xmlns="http://www.w3.org/2000/svg">
<rect width="558" height="474" rx="20" fill="#D0C6F0"/>
<rect x="50" y="79" width="457" height="316" rx="17" fill="white" fill-opacity="0.33"/>
<rect x="67" y="95" width="423" height="284.82" rx="9.4" fill="white"/>
<path d="M67.3525 235.492L159 209L212.814 235.492L281.142 133.271L333.5 173.5L392 164L451.5 223.5L489.648 209.336" stroke="url(#paint0_linear_1_119)" stroke-width="1.88" stroke-linecap="round"/>
<path d="M67 178.11L105 198L159.5 170L223 198L280 181.5L334.5 215.5L393.5 181.5L490 191.721" stroke="url(#paint1_linear_1_119)" stroke-width="1.88" stroke-linecap="round"/>
<path opacity="0.5" d="M94.3271 347.043V338.64H95.2295V346.197H98.9519V347.043H94.3271ZM102.339 347.179C101.918 347.179 101.534 347.081 101.188 346.886C100.842 346.682 100.568 346.404 100.365 346.051C100.169 345.69 100.071 345.276 100.071 344.81V340.997H100.917V344.708C100.917 345.032 100.981 345.318 101.109 345.566C101.245 345.806 101.429 345.994 101.662 346.13C101.903 346.265 102.177 346.333 102.485 346.333C102.794 346.333 103.068 346.265 103.309 346.13C103.549 345.987 103.737 345.788 103.873 345.532C104.008 345.269 104.076 344.957 104.076 344.596V340.997H104.922V347.043H104.076V345.87L104.268 345.915C104.125 346.306 103.88 346.615 103.534 346.84C103.188 347.066 102.79 347.179 102.339 347.179ZM106.662 347.043V340.997H107.508V342.17L107.316 342.125C107.466 341.734 107.711 341.426 108.049 341.2C108.395 340.975 108.794 340.862 109.245 340.862C109.673 340.862 110.057 340.96 110.395 341.155C110.741 341.351 111.012 341.622 111.208 341.967C111.411 342.306 111.512 342.689 111.512 343.118V347.043H110.666V343.445C110.666 343.077 110.598 342.765 110.463 342.509C110.335 342.253 110.151 342.058 109.91 341.922C109.677 341.779 109.406 341.708 109.098 341.708C108.79 341.708 108.515 341.779 108.275 341.922C108.034 342.058 107.846 342.257 107.711 342.52C107.575 342.776 107.508 343.084 107.508 343.445V347.043H106.662Z" fill="#454459"/>
<path opacity="0.5" d="M330.059 347.043L326.98 338.64H327.916L330.623 346.243H330.443L333.139 338.64H334.086L331.007 347.043H330.059ZM337.273 347.179C336.709 347.179 336.198 347.043 335.739 346.773C335.288 346.494 334.931 346.115 334.668 345.633C334.405 345.152 334.273 344.607 334.273 343.998C334.273 343.389 334.401 342.851 334.656 342.385C334.912 341.911 335.258 341.539 335.694 341.268C336.138 340.997 336.634 340.862 337.183 340.862C337.619 340.862 338.007 340.945 338.345 341.11C338.691 341.268 338.984 341.486 339.225 341.764C339.465 342.035 339.65 342.343 339.778 342.689C339.905 343.028 339.969 343.377 339.969 343.738C339.969 343.814 339.966 343.9 339.958 343.998C339.951 344.088 339.939 344.182 339.924 344.28H334.814V343.49H339.439L339.033 343.829C339.101 343.415 339.052 343.047 338.886 342.723C338.729 342.392 338.499 342.133 338.198 341.945C337.898 341.749 337.559 341.652 337.183 341.652C336.807 341.652 336.457 341.749 336.134 341.945C335.818 342.14 335.57 342.415 335.39 342.768C335.209 343.114 335.138 343.528 335.175 344.009C335.138 344.49 335.213 344.912 335.401 345.272C335.596 345.626 335.86 345.9 336.191 346.096C336.529 346.291 336.89 346.389 337.273 346.389C337.717 346.389 338.089 346.284 338.39 346.073C338.691 345.863 338.935 345.6 339.123 345.284L339.845 345.667C339.725 345.938 339.541 346.19 339.293 346.423C339.044 346.649 338.747 346.833 338.401 346.976C338.063 347.111 337.687 347.179 337.273 347.179ZM341.461 347.043V340.997H342.307V342.17L342.115 342.125C342.266 341.734 342.51 341.426 342.848 341.2C343.194 340.975 343.593 340.862 344.044 340.862C344.473 340.862 344.856 340.96 345.195 341.155C345.541 341.351 345.811 341.622 346.007 341.967C346.21 342.306 346.311 342.689 346.311 343.118V347.043H345.465V343.445C345.465 343.077 345.398 342.765 345.262 342.509C345.134 342.253 344.95 342.058 344.71 341.922C344.476 341.779 344.206 341.708 343.897 341.708C343.589 341.708 343.315 341.779 343.074 341.922C342.833 342.058 342.645 342.257 342.51 342.52C342.375 342.776 342.307 343.084 342.307 343.445V347.043H341.461Z" fill="#454459"/>
<path opacity="0.5" d="M152.203 347.043V338.64H152.993L156.151 343.22H155.711L158.858 338.64H159.648V347.043H158.745V339.858L159.039 339.971L155.948 344.449H155.903L152.823 339.971L153.105 339.858V347.043H152.203ZM163.257 347.179C162.873 347.179 162.531 347.107 162.23 346.964C161.929 346.814 161.693 346.611 161.52 346.355C161.347 346.1 161.26 345.806 161.26 345.476C161.26 345.16 161.328 344.874 161.463 344.618C161.599 344.355 161.809 344.133 162.095 343.953C162.381 343.772 162.745 343.644 163.189 343.569L165.558 343.174V343.941L163.392 344.302C162.956 344.378 162.64 344.517 162.445 344.72C162.257 344.923 162.163 345.163 162.163 345.442C162.163 345.712 162.268 345.942 162.478 346.13C162.697 346.318 162.975 346.412 163.313 346.412C163.727 346.412 164.088 346.325 164.396 346.152C164.704 345.972 164.945 345.731 165.118 345.43C165.291 345.13 165.377 344.795 165.377 344.426V342.892C165.377 342.531 165.246 342.238 164.983 342.013C164.719 341.787 164.377 341.674 163.956 341.674C163.588 341.674 163.264 341.768 162.986 341.956C162.708 342.137 162.501 342.374 162.366 342.667L161.599 342.249C161.711 341.994 161.888 341.761 162.129 341.55C162.377 341.34 162.659 341.174 162.975 341.054C163.291 340.926 163.618 340.862 163.956 340.862C164.4 340.862 164.791 340.948 165.129 341.121C165.475 341.294 165.742 341.535 165.93 341.843C166.126 342.144 166.223 342.494 166.223 342.892V347.043H165.377V345.836L165.501 345.961C165.396 346.186 165.231 346.393 165.005 346.581C164.787 346.761 164.528 346.908 164.227 347.021C163.934 347.126 163.61 347.179 163.257 347.179ZM167.964 347.043V340.997H168.81V341.99L168.697 341.843C168.84 341.558 169.054 341.332 169.34 341.167C169.633 341.001 169.986 340.918 170.4 340.918H170.784V341.764H170.253C169.817 341.764 169.468 341.9 169.204 342.17C168.941 342.441 168.81 342.825 168.81 343.321V347.043H167.964Z" fill="#454459"/>
<path opacity="0.5" d="M210.927 347.043V338.64H211.716L214.875 343.22H214.435L217.582 338.64H218.372V347.043H217.469V339.858L217.762 339.971L214.672 344.449H214.627L211.547 339.971L211.829 339.858V347.043H210.927ZM222.984 347.179C222.42 347.179 221.909 347.043 221.45 346.773C220.999 346.494 220.642 346.115 220.379 345.633C220.115 345.152 219.984 344.607 219.984 343.998C219.984 343.389 220.112 342.851 220.367 342.385C220.623 341.911 220.969 341.539 221.405 341.268C221.849 340.997 222.345 340.862 222.894 340.862C223.33 340.862 223.718 340.945 224.056 341.11C224.402 341.268 224.695 341.486 224.936 341.764C225.176 342.035 225.361 342.343 225.489 342.689C225.616 343.028 225.68 343.377 225.68 343.738C225.68 343.814 225.677 343.9 225.669 343.998C225.661 344.088 225.65 344.182 225.635 344.28H220.525V343.49H225.15L224.744 343.829C224.812 343.415 224.763 343.047 224.597 342.723C224.439 342.392 224.21 342.133 223.909 341.945C223.609 341.749 223.27 341.652 222.894 341.652C222.518 341.652 222.168 341.749 221.845 341.945C221.529 342.14 221.281 342.415 221.101 342.768C220.92 343.114 220.849 343.528 220.886 344.009C220.849 344.49 220.924 344.912 221.112 345.272C221.307 345.626 221.571 345.9 221.901 346.096C222.24 346.291 222.601 346.389 222.984 346.389C223.428 346.389 223.8 346.284 224.101 346.073C224.402 345.863 224.646 345.6 224.834 345.284L225.556 345.667C225.436 345.938 225.252 346.19 225.003 346.423C224.755 346.649 224.458 346.833 224.112 346.976C223.774 347.111 223.398 347.179 222.984 347.179ZM227.172 347.043V340.997H228.018V341.99L227.905 341.843C228.048 341.558 228.262 341.332 228.548 341.167C228.841 341.001 229.195 340.918 229.608 340.918H229.992V341.764H229.462C229.026 341.764 228.676 341.9 228.413 342.17C228.149 342.441 228.018 342.825 228.018 343.321V347.043H227.172Z" fill="#454459"/>
<path opacity="0.5" d="M387.451 347.179C386.917 347.179 386.432 347.077 385.996 346.874C385.559 346.671 385.191 346.4 384.89 346.062C384.589 345.716 384.375 345.336 384.247 344.923L385.059 344.618C385.255 345.19 385.559 345.626 385.973 345.927C386.387 346.22 386.879 346.367 387.451 346.367C387.812 346.367 388.128 346.31 388.398 346.197C388.677 346.077 388.891 345.912 389.041 345.701C389.192 345.491 389.267 345.246 389.267 344.968C389.267 344.554 389.154 344.235 388.928 344.009C388.703 343.784 388.379 343.611 387.958 343.49L386.447 343.039C385.853 342.866 385.394 342.577 385.071 342.17C384.755 341.764 384.597 341.302 384.597 340.783C384.597 340.339 384.706 339.948 384.924 339.61C385.142 339.264 385.439 338.993 385.815 338.798C386.199 338.602 386.631 338.504 387.112 338.504C387.616 338.504 388.067 338.598 388.466 338.786C388.872 338.967 389.214 339.208 389.492 339.508C389.771 339.809 389.97 340.144 390.09 340.512L389.301 340.828C389.12 340.332 388.838 339.956 388.455 339.7C388.079 339.444 387.635 339.317 387.124 339.317C386.8 339.317 386.515 339.373 386.266 339.486C386.026 339.599 385.838 339.76 385.702 339.971C385.567 340.181 385.499 340.43 385.499 340.715C385.499 341.061 385.608 341.373 385.826 341.652C386.045 341.922 386.379 342.125 386.83 342.261L388.161 342.656C388.823 342.851 389.323 343.133 389.662 343.502C390 343.87 390.169 344.332 390.169 344.889C390.169 345.34 390.053 345.739 389.82 346.085C389.594 346.423 389.274 346.69 388.861 346.886C388.455 347.081 387.985 347.179 387.451 347.179ZM393.316 347.179C392.932 347.179 392.59 347.107 392.289 346.964C391.989 346.814 391.752 346.611 391.579 346.355C391.406 346.1 391.319 345.806 391.319 345.476C391.319 345.16 391.387 344.874 391.522 344.618C391.658 344.355 391.868 344.133 392.154 343.953C392.44 343.772 392.804 343.644 393.248 343.569L395.617 343.174V343.941L393.451 344.302C393.015 344.378 392.699 344.517 392.504 344.72C392.316 344.923 392.222 345.163 392.222 345.442C392.222 345.712 392.327 345.942 392.538 346.13C392.756 346.318 393.034 346.412 393.372 346.412C393.786 346.412 394.147 346.325 394.455 346.152C394.763 345.972 395.004 345.731 395.177 345.43C395.35 345.13 395.436 344.795 395.436 344.426V342.892C395.436 342.531 395.305 342.238 395.042 342.013C394.778 341.787 394.436 341.674 394.015 341.674C393.647 341.674 393.323 341.768 393.045 341.956C392.767 342.137 392.56 342.374 392.425 342.667L391.658 342.249C391.77 341.994 391.947 341.761 392.188 341.55C392.436 341.34 392.718 341.174 393.034 341.054C393.35 340.926 393.677 340.862 394.015 340.862C394.459 340.862 394.85 340.948 395.188 341.121C395.534 341.294 395.801 341.535 395.989 341.843C396.185 342.144 396.282 342.494 396.282 342.892V347.043H395.436V345.836L395.561 345.961C395.455 346.186 395.29 346.393 395.064 346.581C394.846 346.761 394.587 346.908 394.286 347.021C393.993 347.126 393.669 347.179 393.316 347.179ZM398.023 347.043V340.997H398.869V342.148L398.733 341.979C398.899 341.625 399.143 341.351 399.466 341.155C399.797 340.96 400.158 340.862 400.549 340.862C401.016 340.862 401.437 340.994 401.813 341.257C402.189 341.52 402.456 341.862 402.614 342.283L402.377 342.295C402.527 341.828 402.787 341.475 403.155 341.234C403.531 340.986 403.945 340.862 404.396 340.862C404.802 340.862 405.174 340.96 405.513 341.155C405.858 341.351 406.133 341.622 406.336 341.967C406.547 342.306 406.652 342.689 406.652 343.118V347.043H405.806V343.445C405.806 343.077 405.738 342.765 405.603 342.509C405.475 342.253 405.298 342.058 405.073 341.922C404.847 341.779 404.588 341.708 404.294 341.708C404.009 341.708 403.749 341.779 403.516 341.922C403.283 342.058 403.099 342.257 402.963 342.52C402.828 342.776 402.76 343.084 402.76 343.445V347.043H401.914V343.445C401.914 343.077 401.847 342.765 401.711 342.509C401.583 342.253 401.407 342.058 401.181 341.922C400.955 341.779 400.696 341.708 400.403 341.708C400.109 341.708 399.846 341.779 399.613 341.922C399.387 342.058 399.207 342.257 399.072 342.52C398.936 342.776 398.869 343.084 398.869 343.445V347.043H398.023Z" fill="#454459"/>
<path d="M270.394 347.043V346.141H270.845C271.266 346.141 271.597 346.017 271.838 345.769C272.079 345.513 272.199 345.167 272.199 344.731V338.64H273.101V344.731C273.101 345.205 273.007 345.615 272.819 345.961C272.639 346.306 272.379 346.573 272.041 346.761C271.703 346.949 271.304 347.043 270.845 347.043H270.394ZM277.713 347.179C277.149 347.179 276.637 347.043 276.179 346.773C275.727 346.494 275.37 346.115 275.107 345.633C274.844 345.152 274.712 344.607 274.712 343.998C274.712 343.389 274.84 342.851 275.096 342.385C275.351 341.911 275.697 341.539 276.133 341.268C276.577 340.997 277.073 340.862 277.622 340.862C278.059 340.862 278.446 340.945 278.784 341.11C279.13 341.268 279.423 341.486 279.664 341.764C279.905 342.035 280.089 342.343 280.217 342.689C280.345 343.028 280.409 343.377 280.409 343.738C280.409 343.814 280.405 343.9 280.397 343.998C280.39 344.088 280.379 344.182 280.363 344.28H275.254V343.49H279.878L279.472 343.829C279.54 343.415 279.491 343.047 279.326 342.723C279.168 342.392 278.938 342.133 278.638 341.945C278.337 341.749 277.998 341.652 277.622 341.652C277.246 341.652 276.897 341.749 276.573 341.945C276.258 342.14 276.009 342.415 275.829 342.768C275.648 343.114 275.577 343.528 275.615 344.009C275.577 344.49 275.652 344.912 275.84 345.272C276.036 345.626 276.299 345.9 276.63 346.096C276.968 346.291 277.329 346.389 277.713 346.389C278.156 346.389 278.529 346.284 278.829 346.073C279.13 345.863 279.375 345.6 279.563 345.284L280.285 345.667C280.164 345.938 279.98 346.19 279.732 346.423C279.484 346.649 279.187 346.833 278.841 346.976C278.502 347.111 278.126 347.179 277.713 347.179ZM284.043 347.179C283.622 347.179 283.239 347.081 282.893 346.886C282.547 346.682 282.272 346.404 282.069 346.051C281.874 345.69 281.776 345.276 281.776 344.81V340.997H282.622V344.708C282.622 345.032 282.686 345.318 282.814 345.566C282.949 345.806 283.133 345.994 283.367 346.13C283.607 346.265 283.882 346.333 284.19 346.333C284.498 346.333 284.773 346.265 285.013 346.13C285.254 345.987 285.442 345.788 285.577 345.532C285.713 345.269 285.781 344.957 285.781 344.596V340.997H286.627V347.043H285.781V345.87L285.972 345.915C285.829 346.306 285.585 346.615 285.239 346.84C284.893 347.066 284.495 347.179 284.043 347.179Z" fill="#454459"/>
<path opacity="0.5" d="M444.314 347.043V338.64H447.078C447.913 338.64 448.638 338.813 449.255 339.159C449.872 339.497 450.349 339.982 450.688 340.614C451.026 341.238 451.195 341.979 451.195 342.836C451.195 343.686 451.026 344.426 450.688 345.058C450.349 345.69 449.872 346.179 449.255 346.525C448.638 346.87 447.913 347.043 447.078 347.043H444.314ZM445.217 346.197H447.078C447.725 346.197 448.285 346.062 448.759 345.791C449.232 345.513 449.597 345.122 449.853 344.618C450.116 344.114 450.248 343.52 450.248 342.836C450.248 342.152 450.116 341.561 449.853 341.065C449.59 340.561 449.221 340.174 448.747 339.903C448.274 339.625 447.717 339.486 447.078 339.486H445.217V346.197ZM452.562 347.043V340.997H453.408V347.043H452.562ZM452.562 339.881V338.64H453.408V339.881H452.562ZM455.14 347.043V340.997H455.986V342.148L455.85 341.979C456.016 341.625 456.26 341.351 456.584 341.155C456.915 340.96 457.276 340.862 457.667 340.862C458.133 340.862 458.554 340.994 458.93 341.257C459.306 341.52 459.573 341.862 459.731 342.283L459.494 342.295C459.644 341.828 459.904 341.475 460.272 341.234C460.648 340.986 461.062 340.862 461.513 340.862C461.919 340.862 462.291 340.96 462.63 341.155C462.976 341.351 463.25 341.622 463.453 341.967C463.664 342.306 463.769 342.689 463.769 343.118V347.043H462.923V343.445C462.923 343.077 462.855 342.765 462.72 342.509C462.592 342.253 462.415 342.058 462.19 341.922C461.964 341.779 461.705 341.708 461.412 341.708C461.126 341.708 460.866 341.779 460.633 341.922C460.4 342.058 460.216 342.257 460.08 342.52C459.945 342.776 459.877 343.084 459.877 343.445V347.043H459.031V343.445C459.031 343.077 458.964 342.765 458.828 342.509C458.701 342.253 458.524 342.058 458.298 341.922C458.073 341.779 457.813 341.708 457.52 341.708C457.227 341.708 456.963 341.779 456.73 341.922C456.505 342.058 456.324 342.257 456.189 342.52C456.054 342.776 455.986 343.084 455.986 343.445V347.043H455.14Z" fill="#454459"/>
<path opacity="0.3" d="M103.277 325.435V111.92" stroke="#171724" stroke-width="0.94" stroke-linecap="round" stroke-dasharray="0 0.94 13.16 0 0.94 13.16"/>
<path opacity="0.3" d="M161.391 325.435V111.92" stroke="#171724" stroke-width="0.94" stroke-linecap="round" stroke-dasharray="0 0.94 13.16 0 0.94 13.16"/>
<path opacity="0.3" d="M219.505 325.435V111.92" stroke="#171724" stroke-width="0.94" stroke-linecap="round" stroke-dasharray="0 0.94 13.16 0 0.94 13.16"/>
<path opacity="0.3" d="M277.62 327.037V113.521" stroke="#171724" stroke-width="0.94" stroke-linecap="round" stroke-dasharray="0 0.94 13.16 0 0.94 13.16"/>
<path opacity="0.3" d="M335.734 327.037V113.521" stroke="#171724" stroke-width="0.94" stroke-linecap="round" stroke-dasharray="0 0.94 13.16 0 0.94 13.16"/>
<path opacity="0.3" d="M393.848 327.037V113.521" stroke="#171724" stroke-width="0.94" stroke-linecap="round" stroke-dasharray="0 0.94 13.16 0 0.94 13.16"/>
<path opacity="0.3" d="M451.962 327.037V113.521" stroke="#171724" stroke-width="0.94" stroke-linecap="round" stroke-dasharray="0 0.94 13.16 0 0.94 13.16"/>
<g filter="url(#filter0_d_1_119)">
<circle cx="276.1" cy="133.1" r="14.1" fill="url(#paint2_linear_1_119)"/>
<circle cx="276.1" cy="133.1" r="10.34" stroke="white" stroke-width="7.52"/>
</g>
<defs>
<filter id="filter0_d_1_119" x="238.5" y="100.2" width="75.2" height="75.2" filterUnits="userSpaceOnUse" color-interpolation-filters="sRGB">
<feFlood flood-opacity="0" result="BackgroundImageFix"/>
<feColorMatrix in="SourceAlpha" type="matrix" values="0 0 0 0 0 0 0 0 0 0 0 0 0 0 0 0 0 0 127 0" result="hardAlpha"/>
<feOffset dy="4.7"/>
<feGaussianBlur stdDeviation="11.75"/>
<feColorMatrix type="matrix" values="0 0 0 0 0 0 0 0 0 0 0 0 0 0 0 0 0 0 0.1 0"/>
<feBlend mode="normal" in2="BackgroundImageFix" result="effect1_dropShadow_1_119"/>
<feBlend mode="normal" in="SourceGraphic" in2="effect1_dropShadow_1_119" result="shape"/>
</filter>
<linearGradient id="paint0_linear_1_119" x1="278.5" y1="133.271" x2="278.5" y2="235.492" gradientUnits="userSpaceOnUse">
<stop stop-color="#FF9364"/>
<stop offset="1" stop-color="#F25F33"/>
</linearGradient>
<linearGradient id="paint1_linear_1_119" x1="278.5" y1="170" x2="278.5" y2="215.5" gradientUnits="userSpaceOnUse">
<stop stop-color="#B09FFF"/>
<stop offset="1" stop-color="#8D79F6"/>
</linearGradient>
<linearGradient id="paint2_linear_1_119" x1="276.1" y1="119" x2="276.1" y2="147.2" gradientUnits="userSpaceOnUse">
<stop stop-color="#FF9364"/>
<stop offset="1" stop-color="#F25F33"/>
</linearGradient>
</defs>
</svg>
