<svg width="35" height="35" viewBox="0 0 35 35" fill="none" xmlns="http://www.w3.org/2000/svg">
<g clip-path="url(#clip0_1_386)">
<path d="M18.6842 0.0356445C27.5645 0.0356445 34.8301 7.30131 34.8301 16.1816V18.7042C34.8301 27.5845 27.5644 34.8501 18.6842 34.8501H16.1615C7.28129 34.8501 0.015625 27.5845 0.015625 18.7042V16.1816C0.015625 7.30131 7.28129 0.0356445 16.1615 0.0356445H18.6842ZM17.7403 8.78593L17.5156 8.78564C16.7812 8.78564 16.0469 8.79517 15.4257 8.80675C14.3244 8.82727 13.1928 8.75855 12.1523 9.11958C10.7613 9.6022 9.65226 10.6882 9.13845 12.0643C8.72642 13.1679 8.80391 14.3829 8.78279 15.5607C8.77424 16.038 8.76744 16.5754 8.76594 17.1247L8.76562 17.3501C8.76562 19.2805 8.82745 21.2768 8.82745 21.2768C8.82745 23.4003 10.1654 25.2113 12.0443 25.9128C13.1479 26.3248 14.363 26.2474 15.5408 26.2685C16.0831 26.2782 16.7032 26.2856 17.3301 26.2856C18.2002 26.2856 19.0962 26.2731 19.818 26.2593C20.8189 26.2402 21.842 26.2983 22.7984 26.0027C24.3035 25.5374 25.4791 24.3757 25.9633 22.8797C26.2847 21.8866 26.2217 20.8175 26.2416 19.7739C26.2544 19.0978 26.2656 18.2783 26.2656 17.4738L26.2645 17.0301C26.2616 16.4436 26.2534 15.8685 26.244 15.3671C26.2235 14.2773 26.2918 13.1579 25.9414 12.1258C25.4549 10.6924 24.33 9.57493 22.8916 9.09845C21.8795 8.76318 20.7862 8.82867 19.7202 8.80849C19.1312 8.79734 18.437 8.7877 17.7403 8.78593ZM17.5156 10.3606C19.0495 10.3606 21.0162 10.4113 21.0162 10.4113C22.7853 10.4113 24.02 11.2738 24.4611 12.7397C24.7132 13.5771 24.6524 14.4718 24.6681 15.3461C24.6798 15.9932 24.6906 16.7835 24.6906 17.4849C24.6906 18.2334 24.6788 19.0869 24.6666 19.7696C24.6514 20.6144 24.7077 21.4772 24.4736 22.289C24.1491 23.4148 23.3625 24.1917 22.2283 24.5051C21.4411 24.7226 20.6084 24.6705 19.7917 24.6851C19.1942 24.6957 18.457 24.7063 17.7679 24.7096L17.3635 24.7106C16.7404 24.7106 16.0601 24.7016 15.4808 24.6912C14.5445 24.6744 13.5823 24.7444 12.6939 24.4481C11.6311 24.0937 10.879 23.3106 10.5608 22.222C10.3245 21.414 10.3799 20.5541 10.3649 19.7123C10.3526 19.0217 10.3406 18.1524 10.3406 17.3835C10.3406 16.7305 10.3505 16.0026 10.3615 15.3927C10.3779 14.4874 10.3105 13.558 10.5908 12.697C10.9321 11.6484 11.696 10.9149 12.7626 10.5937C13.6123 10.3377 14.52 10.3985 15.4073 10.3825C16.0442 10.3711 16.8182 10.3606 17.5156 10.3606ZM17.5156 13.0534C15.0401 13.0534 13.0333 15.0601 13.0333 17.5356C13.0333 20.0111 15.0401 22.0178 17.5156 22.0178C19.9911 22.0178 21.9978 20.0111 21.9978 17.5356C21.9978 15.0601 19.9911 13.0534 17.5156 13.0534ZM17.5156 14.6189C19.1264 14.6189 20.4323 15.9247 20.4323 17.5356C20.4323 19.1464 19.1264 20.4523 17.5156 20.4523C15.9048 20.4523 14.5989 19.1464 14.5989 17.5356C14.5989 15.9247 15.9047 14.6189 17.5156 14.6189ZM22.2123 11.8095C21.6142 11.8095 21.1293 12.2968 21.1293 12.8979C21.1293 13.499 21.6142 13.9863 22.2123 13.9863C22.8104 13.9863 23.2953 13.499 23.2953 12.8979C23.2953 12.2968 22.8104 11.8095 22.2123 11.8095Z" fill="#7E7E7E"/>
</g>
<defs>
<clipPath id="clip0_1_386">
<rect width="35" height="35" fill="white"/>
</clipPath>
</defs>
</svg>
