<svg width="34" height="34" viewBox="0 0 34 34" fill="none" xmlns="http://www.w3.org/2000/svg">
<g clip-path="url(#clip0_1_383)">
<path d="M17 0C7.61113 0 0 7.61113 0 17C0 26.3889 7.61113 34 17 34C26.3889 34 34 26.3889 34 17C34 7.61113 26.3889 0 17 0ZM10.6303 28.5099H5.85113V13.1332H10.6303V28.5099ZM8.24174 11.0313C6.70991 11.0313 5.46991 9.78957 5.46991 8.25983C5.47026 6.73148 6.70991 5.48974 8.24174 5.48974C9.76939 5.48974 11.0111 6.73148 11.0111 8.25983C11.0111 9.78991 9.76904 11.0313 8.24174 11.0313ZM28.5297 28.5099H23.7544V21.032C23.7544 19.2487 23.7214 16.9551 21.2703 16.9551C18.7847 16.9551 18.4024 18.8974 18.4024 20.903V28.5096H13.6275V13.1332H18.2111V15.2344H18.2755C18.9137 14.0254 20.472 12.751 22.7972 12.751C27.6365 12.751 28.5297 15.9357 28.5297 20.0758V28.5099Z" fill="#7E7E7E"/>
</g>
<defs>
<clipPath id="clip0_1_383">
<rect width="34" height="34" fill="white"/>
</clipPath>
</defs>
</svg>
