<svg width="85" height="34" viewBox="0 0 85 34" fill="none" xmlns="http://www.w3.org/2000/svg">
<path d="M3.67881 31.8242L0.904625 10.7163H4.85482L6.9053 29.05H7.44808L10.1016 10.7163H16.9768L19.6304 29.05H20.1731L22.2236 10.7163H26.1738L23.3996 31.8242H16.5245L13.8106 13.0683H13.2678L10.554 31.8242H3.67881ZM28.2978 31.8242V16.8678H32.0972V31.8242H28.2978ZM30.1975 15.1188C29.514 15.1188 28.931 14.8977 28.4486 14.4554C27.9862 14.0132 27.755 13.4302 27.755 12.7065C27.755 11.9828 27.9862 11.3998 28.4486 10.9575C28.931 10.5153 29.514 10.2942 30.1975 10.2942C30.9011 10.2942 31.4841 10.5153 31.9464 10.9575C32.4088 11.3998 32.64 11.9828 32.64 12.7065C32.64 13.4302 32.4088 14.0132 31.9464 14.4554C31.4841 14.8977 30.9011 15.1188 30.1975 15.1188ZM35.4029 31.8242V16.8678H39.142V18.8278H39.6848C39.926 18.3051 40.3783 17.8126 41.0417 17.3502C41.7051 16.8678 42.7102 16.6265 44.0571 16.6265C45.2231 16.6265 46.2383 16.8979 47.1027 17.4407C47.9872 17.9634 48.6707 18.6971 49.1532 19.6419C49.6356 20.5667 49.8769 21.6522 49.8769 22.8986V31.8242H46.0774V23.2001C46.0774 22.0744 45.796 21.2301 45.2331 20.6672C44.6903 20.1043 43.9063 19.8229 42.8811 19.8229C41.7151 19.8229 40.8105 20.2149 40.1672 20.9989C39.5239 21.7628 39.2023 22.8383 39.2023 24.2254V31.8242H35.4029ZM59.8944 32.2464C58.4068 32.2464 57.0901 31.9348 55.9442 31.3116C54.8184 30.6683 53.9339 29.7737 53.2906 28.6279C52.6675 27.4619 52.3559 26.0949 52.3559 24.5269V24.1651C52.3559 22.597 52.6675 21.2401 53.2906 20.0943C53.9138 18.9283 54.7883 18.0337 55.9141 17.4105C57.0398 16.7672 58.3465 16.4456 59.8341 16.4456C61.3016 16.4456 62.5781 16.7773 63.6637 17.4407C64.7492 18.084 65.5935 18.9886 66.1966 20.1546C66.7997 21.3004 67.1012 22.6373 67.1012 24.1651V25.4617H56.2156C56.2558 26.4869 56.6378 27.3212 57.3615 27.9645C58.0852 28.6078 58.9697 28.9294 60.015 28.9294C61.0805 28.9294 61.8645 28.6982 62.367 28.2359C62.8696 27.7735 63.2516 27.2609 63.5129 26.698L66.6188 28.3263C66.3373 28.849 65.9252 29.4219 65.3825 30.0451C64.8598 30.6482 64.1562 31.1709 63.2717 31.6131C62.3871 32.0353 61.2614 32.2464 59.8944 32.2464ZM56.2457 22.6272H63.2415C63.1611 21.7628 62.8093 21.0692 62.1861 20.5466C61.583 20.0239 60.789 19.7626 59.8039 19.7626C58.7787 19.7626 57.9645 20.0239 57.3615 20.5466C56.7584 21.0692 56.3865 21.7628 56.2457 22.6272ZM74.2221 32.2464C73.1567 32.2464 72.2018 32.0655 71.3575 31.7036C70.5131 31.3216 69.8397 30.7789 69.3371 30.0753C68.8547 29.3516 68.6134 28.4771 68.6134 27.4519C68.6134 26.4266 68.8547 25.5723 69.3371 24.8888C69.8397 24.1852 70.5232 23.6625 71.3876 23.3207C72.2721 22.9589 73.2773 22.778 74.403 22.778H78.504V21.9337C78.504 21.2301 78.2829 20.6571 77.8406 20.2149C77.3983 19.7525 76.6947 19.5213 75.7298 19.5213C74.785 19.5213 74.0814 19.7425 73.619 20.1847C73.1567 20.6069 72.8551 21.1597 72.7144 21.8432L69.2165 20.6672C69.4577 19.9033 69.8397 19.2097 70.3624 18.5865C70.9051 17.9433 71.6188 17.4306 72.5033 17.0487C73.4079 16.6466 74.5035 16.4456 75.7901 16.4456C77.7602 16.4456 79.3182 16.9381 80.464 17.9232C81.6099 18.9082 82.1828 20.3355 82.1828 22.205V27.7836C82.1828 28.3866 82.4642 28.6882 83.0271 28.6882H84.2333V31.8242H81.7003C80.9565 31.8242 80.3434 31.6433 79.8609 31.2814C79.3785 30.9196 79.1372 30.4371 79.1372 29.834V29.8039H78.5643C78.4839 30.0451 78.303 30.3668 78.0215 30.7688C77.7401 31.1508 77.2978 31.4925 76.6947 31.7941C76.0917 32.0956 75.2674 32.2464 74.2221 32.2464ZM74.8855 29.1707C75.9509 29.1707 76.8154 28.8792 77.4787 28.2962C78.1622 27.6931 78.504 26.899 78.504 25.914V25.6125H74.6744C73.9708 25.6125 73.418 25.7632 73.0159 26.0648C72.6139 26.3663 72.4128 26.7885 72.4128 27.3312C72.4128 27.874 72.6239 28.3163 73.0461 28.658C73.4682 28.9998 74.0814 29.1707 74.8855 29.1707Z" fill="#725CFF"/>
<circle cx="30.1541" cy="8.43019" r="7.13324" fill="#725CFF" stroke="white" stroke-width="2.59391"/>
</svg>
