<svg width="55" height="55" viewBox="0 0 55 55" fill="none" xmlns="http://www.w3.org/2000/svg">
<path d="M18.6914 36.314C13.4277 33.2686 9.88281 27.5752 9.88281 21.0547C9.88281 11.3276 17.7729 3.4375 27.5 3.4375C37.2271 3.4375 45.1172 11.3276 45.1172 21.0547C45.1172 27.5752 41.5723 33.2686 36.3086 36.314V42.5391C36.3086 43.4897 35.5405 44.2578 34.5898 44.2578H20.4102C19.4595 44.2578 18.6914 43.4897 18.6914 42.5391V36.314ZM21.0547 47.6953H33.9453C34.1816 47.6953 34.375 47.8887 34.375 48.125V49.8438C34.375 50.7944 33.6069 51.5625 32.6562 51.5625H22.3438C21.3931 51.5625 20.625 50.7944 20.625 49.8438V48.125C20.625 47.8887 20.8184 47.6953 21.0547 47.6953Z" fill="#725CFF"/>
</svg>
