<svg width="91" height="36" viewBox="0 0 91 36" fill="none" xmlns="http://www.w3.org/2000/svg">
<path d="M3.904 34L0.96 11.6H5.152L7.328 31.056H7.904L10.72 11.6H18.016L20.832 31.056H21.408L23.584 11.6H27.776L24.832 34H17.536L14.656 14.096H14.08L11.2 34H3.904ZM30.03 34V18.128H34.062V34H30.03ZM32.046 16.272C31.3207 16.272 30.702 16.0373 30.19 15.568C29.6993 15.0987 29.454 14.48 29.454 13.712C29.454 12.944 29.6993 12.3253 30.19 11.856C30.702 11.3867 31.3207 11.152 32.046 11.152C32.7927 11.152 33.4113 11.3867 33.902 11.856C34.3927 12.3253 34.638 12.944 34.638 13.712C34.638 14.48 34.3927 15.0987 33.902 15.568C33.4113 16.0373 32.7927 16.272 32.046 16.272ZM37.57 34V18.128H41.538V20.208H42.114C42.37 19.6533 42.85 19.1307 43.554 18.64C44.258 18.128 45.3247 17.872 46.754 17.872C47.9913 17.872 49.0687 18.16 49.986 18.736C50.9247 19.2907 51.65 20.0693 52.162 21.072C52.674 22.0533 52.93 23.2053 52.93 24.528V34H48.898V24.848C48.898 23.6533 48.5993 22.7573 48.002 22.16C47.426 21.5627 46.594 21.264 45.506 21.264C44.2687 21.264 43.3087 21.68 42.626 22.512C41.9433 23.3227 41.602 24.464 41.602 25.936V34H37.57ZM63.5607 34.448C61.9821 34.448 60.5847 34.1173 59.3687 33.456C58.1741 32.7733 57.2354 31.824 56.5527 30.608C55.8914 29.3707 55.5607 27.92 55.5607 26.256V25.872C55.5607 24.208 55.8914 22.768 56.5527 21.552C57.2141 20.3147 58.1421 19.3653 59.3367 18.704C60.5314 18.0213 61.9181 17.68 63.4967 17.68C65.0541 17.68 66.4087 18.032 67.5608 18.736C68.7127 19.4187 69.6087 20.3787 70.2487 21.616C70.8887 22.832 71.2087 24.2507 71.2087 25.872V27.248H59.6567C59.6994 28.336 60.1047 29.2213 60.8727 29.904C61.6407 30.5867 62.5794 30.928 63.6887 30.928C64.8194 30.928 65.6514 30.6827 66.1847 30.192C66.7181 29.7013 67.1234 29.1573 67.4007 28.56L70.6968 30.288C70.3981 30.8427 69.9607 31.4507 69.3847 32.112C68.8301 32.752 68.0834 33.3067 67.1447 33.776C66.2061 34.224 65.0114 34.448 63.5607 34.448ZM59.6887 24.24H67.1127C67.0274 23.3227 66.6541 22.5867 65.9927 22.032C65.3527 21.4773 64.5101 21.2 63.4647 21.2C62.3767 21.2 61.5127 21.4773 60.8727 22.032C60.2327 22.5867 59.8381 23.3227 59.6887 24.24ZM78.7655 34.448C77.6348 34.448 76.6215 34.256 75.7255 33.872C74.8295 33.4667 74.1148 32.8907 73.5815 32.144C73.0695 31.376 72.8135 30.448 72.8135 29.36C72.8135 28.272 73.0695 27.3653 73.5815 26.64C74.1148 25.8933 74.8402 25.3387 75.7575 24.976C76.6962 24.592 77.7628 24.4 78.9575 24.4H83.3095V23.504C83.3095 22.7573 83.0748 22.1493 82.6055 21.68C82.1362 21.1893 81.3895 20.944 80.3655 20.944C79.3628 20.944 78.6162 21.1787 78.1255 21.648C77.6348 22.096 77.3148 22.6827 77.1655 23.408L73.4535 22.16C73.7095 21.3493 74.1148 20.6133 74.6695 19.952C75.2455 19.2693 76.0028 18.7253 76.9415 18.32C77.9015 17.8933 79.0642 17.68 80.4295 17.68C82.5202 17.68 84.1735 18.2027 85.3895 19.248C86.6055 20.2933 87.2135 21.808 87.2135 23.792V29.712C87.2135 30.352 87.5122 30.672 88.1095 30.672H89.3895V34H86.7015C85.9122 34 85.2615 33.808 84.7495 33.424C84.2375 33.04 83.9815 32.528 83.9815 31.888V31.856H83.3735C83.2882 32.112 83.0962 32.4533 82.7975 32.88C82.4988 33.2853 82.0295 33.648 81.3895 33.968C80.7495 34.288 79.8748 34.448 78.7655 34.448ZM79.4695 31.184C80.6002 31.184 81.5175 30.8747 82.2215 30.256C82.9468 29.616 83.3095 28.7733 83.3095 27.728V27.408H79.2455C78.4988 27.408 77.9122 27.568 77.4855 27.888C77.0588 28.208 76.8455 28.656 76.8455 29.232C76.8455 29.808 77.0695 30.2773 77.5175 30.64C77.9655 31.0027 78.6162 31.184 79.4695 31.184Z" fill="white"/>
<circle cx="31.5" cy="8.5" r="7.5" fill="white" stroke="#7224D1" stroke-width="2"/>
</svg>
